# xmcd
#
# Track frame offsets:
#	150
#	10661
#	26701
#	40595
#	50763
#	68591
#	79389
#	91819
#	102634
#	115031
#	125161
#	141275
#	154767
#	168387
#	183384
#	197624
#	210536
#	223063
#	238301
#	249161
#	262663
#	278465
#	293933
#	311878
#
# Disc length: 4328 seconds
#
# Revision: 0
# Processed by: cddbd v1.5.2PL0 Copyright (c) Steve Scherf et al.
# Submitted via: audiograbber 1.83.01
#
DISCID=5910e618
DTITLE=Joanie Sommers - Positively The Most and Softly The Brazilian Sounds
DYEAR=2007
DGENRE=
TTITLE0=My Heart Belongs To Daddy
TTITLE1=Something I Dreamed Last Night
TTITLE2=It Might As Well Be Spring
TTITLE3=I'm Beginning To See The Light
TTITLE4=Heart And Soul
TTITLE5=I Like The Likes Of You
TTITLE6=What's New
TTITLE7=So In Love
TTITLE8=Oh But I Do
TTITLE9=Old Devil Moon
TTITLE10=Just Squeeze Me
TTITLE11=Too Young For The Blues
TTITLE12=Meditiation
TTITLE13=Dear Heart
TTITLE14=Watching The World Go By
TTITLE15=Quiet Nights
TTITLE16=Once
TTITLE17=Softly, As I Leave You
TTITLE18=I Could Have Danced All Night
TTITLE19=I'll Remember April
TTITLE20=You Can't Go Home Again
TTITLE21=Carnival
TTITLE22=Old Guitaron
TTITLE23=That's All
EXTD=
EXTT0=
EXTT1=
EXTT2=
EXTT3=
EXTT4=
EXTT5=
EXTT6=
EXTT7=
EXTT8=
EXTT9=
EXTT10=
EXTT11=
EXTT12=
EXTT13=
EXTT14=
EXTT15=
EXTT16=
EXTT17=
EXTT18=
EXTT19=
EXTT20=
EXTT21=
EXTT22=
EXTT23=
PLAYORDER=
